<svg id="car-door" xmlns="http://www.w3.org/2000/svg" width="32" height="32" viewBox="0 0 32 32">
  <defs>
    <style>
      .cls-1 {
        fill: #888;
      }
    </style>
  </defs>
  <g id="Group_59" data-name="Group 59">
    <g id="Group_58" data-name="Group 58">
      <path id="Path_37" data-name="Path 37" class="cls-1" d="M31.176,12.913,19.087.824A2.794,2.794,0,0,0,17.1,0H2.813A2.816,2.816,0,0,0,0,2.813V29.188A2.816,2.816,0,0,0,2.813,32H17.875a.938.938,0,0,0,.839-.518,12.808,12.808,0,0,1,11.359-7.044h.99A.938.938,0,0,0,32,23.5V14.9A2.794,2.794,0,0,0,31.176,12.913Zm-1.051,9.65h-.052a14.66,14.66,0,0,0-12.764,7.563H2.813a.939.939,0,0,1-.938-.938V2.813a.939.939,0,0,1,.938-.938H17.1a.931.931,0,0,1,.663.275L29.85,14.239a.931.931,0,0,1,.275.663Z"/>
    </g>
  </g>
  <g id="Group_61" data-name="Group 61" transform="translate(3.75 3.75)">
    <g id="Group_60" data-name="Group 60">
      <path id="Path_38" data-name="Path 38" class="cls-1" d="M84.165,71.268,73.236,60.277A.937.937,0,0,0,72.571,60H60.938a.938.938,0,0,0-.937.938V72.25a.938.938,0,0,0,.938.938H83.5a.938.938,0,0,0,.938-.937v-.321A.938.938,0,0,0,84.165,71.268Zm-22.29.045V61.875H72.181l9.384,9.438Z" transform="translate(-60 -60)"/>
    </g>
  </g>
  <g id="Group_63" data-name="Group 63" transform="translate(3.75 20.688)">
    <g id="Group_62" data-name="Group 62">
      <path id="Path_39" data-name="Path 39" class="cls-1" d="M66.563,331H60.938a.938.938,0,0,0-.937.938v.938a3.75,3.75,0,0,0,7.5,0v-.937A.938.938,0,0,0,66.563,331Zm-2.812,3.75a1.882,1.882,0,0,1-1.875-1.881h3.75A1.882,1.882,0,0,1,63.75,334.75Z" transform="translate(-60 -331)"/>
    </g>
  </g>
</svg>
