<svg xmlns="http://www.w3.org/2000/svg" width="18" height="16" viewBox="0 0 18 16">
  <g id="Group_37" data-name="Group 37" transform="translate(-1432.926 -711.48)">
    <path id="Path_37" data-name="Path 37" d="M18.92,6.01A1.494,1.494,0,0,0,17.5,5H6.5A1.5,1.5,0,0,0,5.08,6.01L3,12v8a1,1,0,0,0,1,1H5a1,1,0,0,0,1-1V19H18v1a1,1,0,0,0,1,1h1a1,1,0,0,0,1-1V12ZM6.85,7H17.14l1.08,3.11H5.77ZM19,17H5V12H19Z" transform="translate(1429.926 706.48)" fill="#da212e"/>
    <ellipse id="Ellipse_4" data-name="Ellipse 4" cx="1.513" cy="1.513" rx="1.513" ry="1.513" transform="translate(1435.92 719.464)" fill="#da212e"/>
    <ellipse id="Ellipse_5" data-name="Ellipse 5" cx="1.513" cy="1.513" rx="1.513" ry="1.513" transform="translate(1444.904 719.464)" fill="#da212e"/>
  </g>
</svg>
