<svg xmlns="http://www.w3.org/2000/svg" width="27.392" height="20.502" viewBox="0 0 27.392 20.502">
  <defs>
    <style>
      .cls-1 {
        fill: #888;
      }
    </style>
  </defs>
  <path id="malfunction-indicador" class="cls-1" d="M27.316,38.274l-1.326-3a.889.889,0,0,0-.814-.53h-2.2a.889.889,0,0,0-.889.889v1.4h-.683V35.88a.889.889,0,0,0-.889-.889H18.15V32.563a.889.889,0,0,0-.889-.889H12.885v-.847h4.375a.889.889,0,1,0,0-1.779H6.731a.889.889,0,1,0,0,1.779h4.375v.847H6.731a.889.889,0,0,0-.889.889V33.3H3.89A.889.889,0,0,0,3,34.192v4.773H1.779V34.192a.889.889,0,0,0-1.779,0V45.517a.889.889,0,1,0,1.779,0V40.744H3v4.773a.889.889,0,0,0,.889.889H7.346l3.511,2.937a.889.889,0,0,0,.571.207h9.09a.889.889,0,0,0,.889-.889V46.236h.683v1.4a.889.889,0,0,0,.889.889h2.2a.889.889,0,0,0,.814-.53l1.326-3a.89.89,0,0,0,.076-.359v-6A.888.888,0,0,0,27.316,38.274Zm-1.7,6.175-1.016,2.3H23.87v-1.4a.889.889,0,0,0-.889-.889H20.518a.889.889,0,0,0-.889.889v2.425H11.751L8.239,44.835a.889.889,0,0,0-.571-.207H4.78V35.081H6.731a.889.889,0,0,0,.889-.889v-.739h8.751V35.88a.889.889,0,0,0,.889.889h2.368v1.154a.889.889,0,0,0,.889.889H22.98a.889.889,0,0,0,.889-.889v-1.4H24.6l1.016,2.3Z" transform="translate(0 -29.048)"/>
</svg>
