<svg xmlns="http://www.w3.org/2000/svg" width="24.732" height="30.44" viewBox="0 0 24.732 30.44">
  <defs>
    <style>
      .cls-1 {
        fill: #888;
      }
    </style>
  </defs>
  <g id="gas-station-fuel-svgrepo-com" transform="translate(-48)">
    <g id="Group_36" data-name="Group 36" transform="translate(48)">
      <g id="Group_35" data-name="Group 35">
        <path id="Path_23" data-name="Path 23" class="cls-1" d="M93.317,53.333H80.634a.636.636,0,0,0-.634.634v8.878a.636.636,0,0,0,.634.634H93.317a.636.636,0,0,0,.634-.634V53.967A.636.636,0,0,0,93.317,53.333Zm-.634,8.878H81.268V54.6H92.683Z" transform="translate(-78.097 -50.162)"/>
        <path id="Path_24" data-name="Path 24" class="cls-1" d="M72.549,10.965,70.012,8.428a.632.632,0,0,0-.894.894l2.353,2.353v8.872a.953.953,0,1,1-1.9,0V12.322c0-1-1.008-1.541-1.953-1.541H65.757v-7.9A2.675,2.675,0,0,0,63.125,0H50.778A2.8,2.8,0,0,0,48,2.879V29.806a.636.636,0,0,0,.634.634H65.122a.636.636,0,0,0,.634-.634V12.049h1.852c.361,0,.685.152.685.273v8.225a2.22,2.22,0,1,0,4.439,0V11.415A.655.655,0,0,0,72.549,10.965ZM49.268,29.172V2.879a1.526,1.526,0,0,1,1.509-1.611H63.118a1.432,1.432,0,0,1,1.363,1.611l.006,26.292Z" transform="translate(-48)"/>
        <path id="Path_25" data-name="Path 25" class="cls-1" d="M127.764,256.731a.658.658,0,0,0-1.11,0,9.813,9.813,0,0,1-1.363,1.687c-1.18,1.275-2.518,2.721-2.518,4.674a4.454,4.454,0,0,0,8.878.006c0-1.953-1.338-3.4-2.518-4.674A9.776,9.776,0,0,1,127.764,256.731Zm-.558,9.183a3.016,3.016,0,0,1-3.171-2.822c0-1.459,1.11-2.657,2.182-3.811.355-.38.691-.748.989-1.122.3.368.634.736.989,1.116,1.072,1.161,2.182,2.353,2.182,3.811A3.016,3.016,0,0,1,127.206,265.914Z" transform="translate(-118.328 -241.181)"/>
      </g>
    </g>
  </g>
</svg>
