<?xml version="1.0" encoding="utf-8"?>
<!-- Generator: Adobe Illustrator 22.0.0, SVG Export Plug-In . SVG Version: 6.00 Build 0)  -->
<svg version="1.1" id="Layer_1" xmlns="http://www.w3.org/2000/svg" xmlns:xlink="http://www.w3.org/1999/xlink" x="0px" y="0px"
	 viewBox="0 0 530 126.2" style="enable-background:new 0 0 530 126.2;" xml:space="preserve">
<style type="text/css">
	.st0{fill:url(#SVGID_1_);}
</style>
<g>
	
		<linearGradient id="SVGID_1_" gradientUnits="userSpaceOnUse" x1="-81.8448" y1="-43.1691" x2="499.9695" y2="120.2072" gradientTransform="matrix(1 0 0 -1 0 126.8898)">
		<stop  offset="0" style="stop-color:#B81F25"/>
		<stop  offset="1" style="stop-color:#E61E26"/>
	</linearGradient>
	<path class="st0" d="M18,79.7c-11.5,0-17.2-4.2-17.2-12.5v-1.6c0-8.3,5.7-12.5,17.2-12.5h39v9.4H18c-3.1,0-4.7,1-4.7,3.1v1.6
		c0,2.1,1.6,3.1,4.7,3.1h21.9c11.5,0,17.2,4.2,17.2,12.5v1.6c0,8.3-5.7,12.5-17.2,12.5h-39v-9.4h39c3.1,0,4.7-1,4.7-3.1v-1.6
		c0-2.1-1.6-3.1-4.7-3.1H18L18,79.7z M60.1,53.1h12.5v17.2h31.2V53.1h12.5v43.7h-12.5V79.6H72.6v17.2H60.1L60.1,53.1L60.1,53.1z
		 M119.5,68.7c0-10.4,6.2-15.6,18.7-15.6H157c12.5,0,18.7,5.2,18.7,15.6v15.6c0,8.3-6.2,12.5-18.7,12.5h-18.7
		c-12.5,0-18.7-5.2-18.7-15.6V68.7H119.5z M163.2,68.7c0-4.2-2.1-6.2-6.2-6.2h-18.7c-4.2,0-6.2,2.1-6.2,6.2v12.5
		c0,4.2,2.1,6.2,6.2,6.2H157c4.2,0,6.2-2.1,6.2-6.2V68.7L163.2,68.7z M216.3,69.2l-6.2,21.4c-1,4.2-3.6,6.2-7.8,6.2H196
		c-4.2,0-6.8-2.1-7.8-6.2l-10.9-37.5h14.1l7.8,31.2l6.2-25c1-4.2,3.6-6.2,7.8-6.2h6.2c4.2,0,6.8,2.1,7.8,6.2l6.2,25l7.8-31.2h14.1
		l-10.9,37.5c-1,4.2-3.6,6.2-7.8,6.2h-6.2c-4.2,0-6.8-2.1-7.8-6.2L216.3,69.2L216.3,69.2z M295.9,79.7h-26.5v17.2h-12.5V70.4h39
		c3.1,0,4.7-1,4.7-3.1v-1.6c0-2.1-1.6-3.1-4.7-3.1h-39v-9.4h39c11.5,0,17.2,4.2,17.2,12.5v1.6c0,4-1.3,7.1-4,9.1
		c3.7,4.4,6,11.3,7.1,20.5h-12.5C301.7,85.4,299.1,79.7,295.9,79.7L295.9,79.7z M316.2,68.7v12.5c0,10.4,6.2,15.6,18.7,15.6h18.7
		c12.5,0,18.7-4.2,18.7-12.5V68.7c0-10.4-6.2-15.6-18.7-15.6H335C322.5,53.1,316.2,58.3,316.2,68.7L316.2,68.7z M360,68.7v12.5
		c0,4.2-2.1,6.2-6.2,6.2H335c-4.2,0-6.2-2.1-6.2-6.2V68.7c0-4.2,2.1-6.2,6.2-6.2h18.7C357.9,62.5,360,64.6,360,68.7L360,68.7z
		 M375.6,68.7c0-10.4,6.2-15.6,18.7-15.6H413c12.5,0,18.7,5.2,18.7,15.6v15.6c0,8.3-6.2,12.5-18.7,12.5h-18.7
		c-12.5,0-18.7-5.2-18.7-15.6V68.7L375.6,68.7z M419.3,68.7c0-4.2-2.1-6.2-6.2-6.2h-18.7c-4.2,0-6.2,2.1-6.2,6.2v12.5
		c0,4.2,2.1,6.2,6.2,6.2h18.7c4.2,0,6.2-2.1,6.2-6.2V68.7L419.3,68.7z M450.5,53.1c6.2,0,10.4,4.2,12.5,12.5l4.7,15.2l4.7-15.2
		c2.1-8.3,6.2-12.5,12.5-12.5c10.4,0,15.6,5.2,15.6,15.6v28.1H488V67.1c0-1-0.5-1.6-1.6-1.6c-1,0-2.1,2.1-3.1,6.2l-6.2,18.7
		c-1,4.2-3.6,6.2-7.8,6.2h-3.1c-4.2,0-6.8-2.1-7.8-6.2l-6.2-18.7c-1-4.2-2.1-6.2-3.1-6.2s-1.6,0.5-1.6,1.6v29.7H435V68.7
		C434.9,58.3,440.1,53.1,450.5,53.1z"/>
	<path d="M461.8,32.2l0.2,0.1h0.1C461.9,32.2,461.9,32.2,461.8,32.2z"/>
	<path d="M421.1,38.6c-0.4-0.9-0.1-1.5,0.7-2c1.9-1.1,8-1,9.8-0.9h0.4h3.1c13.8-0.1,28-0.2,41.5,1.2l2.4,0.2
		c20.3,2,28.5,2.8,47.8,14.3c0.9,0.5,1.6,1,1.9,1.4c0.3,0.3,0.4,0.6,0.4,0.9c-0.1,0.5-0.3,0.8-0.9,0.8c-0.3,0-1-0.2-2.1-0.6
		c-1.5-0.6-2.9-1.1-4.3-1.6c-5.3-2-11.8-4.5-14.4-5.2c-9-2.3-18.5-3.9-28-5s-19.1-1.7-28.2-2c-3.4-0.1-6.7-0.2-10.1-0.2
		c-6.5-0.1-13.1-0.2-19.5-0.8h-0.4L421.1,38.6z"/>
	<path d="M343,30.5c-2.2-0.2-4.4-0.5-6.6-0.9c-2.2-0.3-4.4-0.7-6.6-1.1c-6-1.1-16.2-2.9-17.6-13.2l-0.2-1.8l1.4-0.7
		c2.5-1.3,4.2-1.7,5.4-1.7c1.4,0.1,2.2,0.9,2.7,2.1c0.4,1,0.3,1.9,0.3,2.9l0,0c0,0.8,0,1.7,0.2,2c1,1,2.4,1.6,3.8,2.1
		c1.5,0.5,3.1,0.8,4.5,1l1.1,0.2c2.2,0.4,7.8,1,15,1.6c7.3,0.6,16.1,1.3,24.5,2c7.6,0.6,14.9,1.2,20.6,1.7c5.8,0.5,10,0.9,11.5,1.2
		c1.3,0.1,2.1,0.9,2.5,1.8c0.2,0.4,0.2,0.8,0.2,1.2s-0.1,0.8-0.3,1.2c-0.4,0.8-1.2,1.4-2.4,1.4c-1.8,0-2.4-0.1-3.5-0.2
		c-1.2-0.1-3.1-0.4-8.6-0.6c-2.9-0.1-6.8-0.3-11.2-0.4C368.8,32.1,354.5,31.7,343,30.5z"/>
	<path d="M335.5,40.2c-1.5,1-4.1,0.6-6.4,0.4c-0.9-0.1-1.8-0.2-2.4-0.2c-3.5,0-4-0.5-5.1-1.5c-0.5-0.5-1.2-1.1-2.5-1.8
		c-1.9-1.1-4.5-1.9-7.1-2.5c-3.2-0.7-6.5-1.1-9-1.1c-1.7,0-3.3,0-5-0.1c-4.6-0.1-9.2-0.1-13.6,0.1c-0.3,0-1.3,0.1-2.6,0.2
		c-5.1,0.4-15.2,1.3-15.8,0.2l-0.3-0.6l0.5-0.4c1.3-1.1,6-1.9,11.7-2.5c9.4-0.9,21.6-1.2,25-1.2c3.6,0,13.8,1.1,21.9,3.5
		c5.2,1.5,9.6,3.7,11.1,6.5l0.4,0.7L335.5,40.2z"/>
	<path d="M463.2,33.7c-2.4,0.2-4.9,0.3-7.4,0.3s-5-0.1-7.4-0.2c-4.4-0.2-5.9-1.6-8.3-3.9c-0.8-0.8-1.7-1.6-2.9-2.6
		c-2.7-2.2-6-4.3-9.4-6.2c-4.2-2.4-8.6-4.6-12.2-6.2c-8.4-3.7-17.4-6.1-26.4-7.5c-9.1-1.4-18.3-1.8-27-1.8
		c-11.4,0.1-19.5,0.6-27.5,1.8s-15.9,3.1-27.1,5.8c-5.8,1.4-11.3,3-16.9,4.6c-7,2-14,4-21.4,5.7c-1.2,0.3-6,1-9.7,1.4
		c-2.4,0.2-4.3,0.2-4.8-0.3l-1.1-1l1.4-0.3c3.3-0.8,6.7-1.5,10-2.1c5.5-1.1,11-2.1,16.4-4c4-1.4,8.3-2.8,12.6-4
		c4.3-1.3,8.7-2.4,12.9-3.4c10.2-2.4,18.7-4.5,27.3-5.9c8.6-1.5,17.3-2.4,27.9-2.6C378.7,1,390.8,2,402.6,5
		c11.8,3.1,23.2,8.1,38.1,16c1.5,0.8,2.9,1.5,4.3,2.2c2.4,1.2,4.7,2.4,7,3.7c0.4,0.2,2.5,1.2,4.8,2.3s4.9,2.3,6.1,3.2h0.1v0.1
		c0.5,0.4,0.8,0.7,0.7,0.9l-0.2,0.3l0,0H463.2z"/>
	<path d="M4.4,122.5h1.2c2.3,0,3.9-0.1,4.9-0.3c1-0.2,1.8-0.6,2.5-1.1c0.9-0.7,1.7-1.6,2.2-2.7s0.8-2.4,0.8-3.7
		c0-1.2-0.2-2.2-0.6-3.2c-0.4-0.9-1-1.7-1.8-2.3c-0.6-0.5-1.3-0.8-2-1c-0.8-0.2-2-0.3-3.7-0.3H6.5L4.4,122.5L4.4,122.5z M0.8,125.4
		L3.5,105h4.3c2.3,0,3.9,0.1,5,0.4s2.1,0.8,2.9,1.4c1.1,0.8,1.9,1.9,2.5,3.2c0.6,1.3,0.9,2.8,0.9,4.4c0,1.4-0.2,2.8-0.7,4.1
		c-0.5,1.3-1.1,2.5-2,3.4c-0.6,0.7-1.3,1.3-2,1.8c-0.8,0.5-1.6,0.8-2.5,1.1c-0.6,0.2-1.2,0.3-1.9,0.4s-1.5,0.1-2.5,0.1h-2H0.8V125.4
		z M46.7,125.4l11.8-21.2l7.4,21.2h-3.3l-1.7-4.8h-8.1l-2.7,4.8H46.7L46.7,125.4z M54.1,117.9h6l-1.6-5c-0.1-0.2-0.2-0.6-0.2-1
		c-0.1-0.4-0.2-0.9-0.3-1.6c-0.2,0.5-0.4,0.9-0.6,1.4c-0.2,0.4-0.4,0.8-0.6,1.2L54.1,117.9L54.1,117.9z M94,121.9l2.2-1.9
		c0.6,1.1,1.2,1.9,1.8,2.4s1.4,0.7,2.3,0.7c1.1,0,1.9-0.3,2.6-0.9c0.7-0.6,1-1.5,1-2.5c0-0.7-0.2-1.3-0.5-1.8c-0.4-0.5-1-1-1.9-1.5
		c-0.2-0.1-0.5-0.3-0.8-0.5c-1.5-0.8-2.6-1.6-3.1-2.1c-0.4-0.4-0.7-0.9-0.9-1.4c-0.2-0.6-0.3-1.1-0.3-1.8c0-1.8,0.6-3.3,1.7-4.4
		c1.1-1.1,2.7-1.7,4.5-1.7c1.3,0,2.4,0.3,3.3,0.8c0.9,0.5,1.7,1.3,2.3,2.3l-1.9,1.8c-0.5-0.7-1-1.3-1.5-1.7
		c-0.6-0.4-1.2-0.5-1.9-0.5c-1,0-1.8,0.3-2.4,0.9c-0.6,0.6-0.9,1.3-0.9,2.3c0,1.1,0.9,2.1,2.7,3.1c0.4,0.2,0.8,0.4,1,0.6
		c1.4,0.8,2.3,1.6,2.9,2.5c0.6,0.9,0.9,1.9,0.9,3.2c0,1.9-0.6,3.5-1.9,4.6c-1.2,1.1-2.9,1.7-5.1,1.7c-1.4,0-2.7-0.3-3.7-1
		C95.4,124.3,94.6,123.3,94,121.9L94,121.9z M152.5,125.4l11.8-21.2l7.4,21.2h-3.3l-1.7-4.8h-8.1l-2.7,4.8H152.5L152.5,125.4z
		 M160,117.9h6l-1.6-5c-0.1-0.2-0.2-0.6-0.2-1c-0.1-0.4-0.2-0.9-0.3-1.6c-0.2,0.5-0.4,0.9-0.6,1.4c-0.2,0.4-0.4,0.8-0.6,1.2
		L160,117.9L160,117.9z M206.7,105.1l-1.6,11.8c-0.1,0.4-0.1,0.8-0.1,1.2c0,0.4,0,0.7,0,0.9c0,1.3,0.4,2.3,1.1,3
		c0.7,0.7,1.8,1,3.2,1c1,0,1.9-0.2,2.7-0.5c0.7-0.3,1.4-0.9,1.9-1.6c0.7-0.9,1.2-2.6,1.5-4.9c0-0.3,0.1-0.5,0.1-0.6l1.4-10.4h3.2
		l-1.5,11.5c-0.3,1.9-0.5,3.4-0.9,4.2c-0.3,0.9-0.7,1.6-1.3,2.3c-0.8,1-1.8,1.7-3.1,2.2c-1.2,0.5-2.7,0.8-4.3,0.8
		c-2.3,0-4.1-0.6-5.3-1.7c-1.2-1.2-1.8-2.8-1.8-5c0-0.5,0-1.2,0.1-2c0.1-0.9,0.2-1.8,0.3-2.9l1.2-9.3H206.7L206.7,105.1z
		 M253.1,125.4l2.3-17.4h-5.5l0.4-2.9h13.9l-0.4,2.9h-5.2l-2.3,17.4H253.1L253.1,125.4z M310.3,114.6c0-2.1-0.7-3.9-2-5.2
		c-1.3-1.3-3-2-5.2-2c-1.1,0-2.1,0.2-3,0.6c-1,0.4-1.8,1-2.5,1.7c-0.8,0.8-1.4,1.8-1.9,2.9c-0.4,1.1-0.6,2.2-0.6,3.4
		c0,2.1,0.6,3.8,1.9,5.2c1.3,1.3,3,2,5,2c2.3,0,4.3-0.8,5.9-2.4C309.5,119,310.3,117,310.3,114.6L310.3,114.6z M303.4,104.6
		c3.1,0,5.6,0.9,7.4,2.7c1.8,1.8,2.8,4.2,2.8,7.2c0,1.6-0.3,3.1-0.9,4.6c-0.6,1.4-1.4,2.7-2.6,3.7c-1.1,1-2.3,1.8-3.7,2.3
		c-1.4,0.5-2.9,0.8-4.5,0.8c-3,0-5.3-0.9-7.2-2.7c-1.8-1.8-2.7-4.2-2.7-7.2c0-1.7,0.3-3.2,0.9-4.6s1.4-2.7,2.5-3.7
		c1-1,2.3-1.8,3.6-2.3C300.4,104.8,301.9,104.6,303.4,104.6L303.4,104.6z M344.1,125.4l2.7-20.4h3.2l-1,7.7h9.8l1-7.7h3.2l-2.7,20.4
		h-3.2l1.3-9.7h-9.8l-1.3,9.7H344.1L344.1,125.4z M390.6,125.4l11.8-21.2l7.4,21.2h-3.3l-1.7-4.8h-8.1l-2.7,4.8H390.6L390.6,125.4z
		 M398.1,117.9h6l-1.6-5c-0.1-0.2-0.2-0.6-0.2-1c-0.1-0.4-0.2-0.9-0.3-1.6c-0.2,0.5-0.4,0.9-0.6,1.4c-0.2,0.4-0.4,0.8-0.6,1.2
		L398.1,117.9L398.1,117.9z M444.8,105.1l-1.6,11.8c-0.1,0.4-0.1,0.8-0.1,1.2c0,0.4,0,0.7,0,0.9c0,1.3,0.4,2.3,1.1,3s1.8,1,3.2,1
		c1,0,1.9-0.2,2.7-0.5c0.7-0.3,1.4-0.9,1.9-1.6c0.7-0.9,1.2-2.6,1.5-4.9c0-0.3,0.1-0.5,0.1-0.6L455,105h3.2l-1.5,11.5
		c-0.3,1.9-0.5,3.4-0.9,4.2c-0.3,0.9-0.7,1.6-1.3,2.3c-0.8,1-1.8,1.7-3.1,2.2c-1.2,0.5-2.7,0.8-4.3,0.8c-2.3,0-4.1-0.6-5.3-1.7
		c-1.2-1.2-1.8-2.8-1.8-5c0-0.5,0-1.2,0.1-2c0.1-0.9,0.2-1.8,0.3-2.9l1.2-9.3H444.8L444.8,105.1z M486.7,121.9l2.2-1.9
		c0.6,1.1,1.2,1.9,1.8,2.4s1.4,0.7,2.3,0.7c1.1,0,1.9-0.3,2.6-0.9c0.7-0.6,1-1.5,1-2.5c0-0.7-0.2-1.3-0.5-1.8c-0.4-0.5-1-1-1.9-1.5
		c-0.2-0.1-0.5-0.3-0.8-0.5c-1.5-0.8-2.5-1.6-3.1-2.1c-0.4-0.4-0.7-0.9-0.9-1.4c-0.2-0.6-0.3-1.1-0.3-1.8c0-1.8,0.6-3.3,1.7-4.4
		c1.1-1.1,2.7-1.7,4.5-1.7c1.3,0,2.4,0.3,3.3,0.8c0.9,0.5,1.7,1.3,2.3,2.3l-1.9,1.8c-0.5-0.7-1-1.3-1.5-1.7
		c-0.6-0.4-1.2-0.5-1.9-0.5c-1,0-1.8,0.3-2.4,0.9c-0.6,0.6-0.9,1.3-0.9,2.3c0,1.1,0.9,2.1,2.7,3.1c0.4,0.2,0.8,0.4,1,0.6
		c1.4,0.8,2.3,1.6,2.9,2.5c0.6,0.9,0.9,1.9,0.9,3.2c0,1.9-0.6,3.5-1.9,4.6c-1.2,1.1-2.9,1.7-5.1,1.7c-1.4,0-2.7-0.3-3.7-1
		C488.2,124.3,487.4,123.3,486.7,121.9z"/>
</g>
</svg>
