<svg xmlns="http://www.w3.org/2000/svg" width="29.387" height="32.2" viewBox="0 0 29.387 32.2">
  <defs>
    <style>
      .cls-1 {
        fill: #888;
      }
    </style>
  </defs>
  <path id="Subtraction_27" data-name="Subtraction 27" class="cls-1" d="M-2096.053-11527.8a4.417,4.417,0,0,1-1.729-.349,4.425,4.425,0,0,1-1.412-.952,4.419,4.419,0,0,1-.952-1.412,4.416,4.416,0,0,1-.349-1.729,4.416,4.416,0,0,1,.349-1.729,4.419,4.419,0,0,1,.952-1.412,4.473,4.473,0,0,1,.92-.707v-5.7h-5.7v5.745a4.481,4.481,0,0,1,.846.663,4.423,4.423,0,0,1,.952,1.412,4.408,4.408,0,0,1,.349,1.729,4.408,4.408,0,0,1-.349,1.729,4.42,4.42,0,0,1-.952,1.412,4.438,4.438,0,0,1-1.412.952,4.418,4.418,0,0,1-1.729.349,4.418,4.418,0,0,1-1.729-.349,4.428,4.428,0,0,1-1.412-.952,4.42,4.42,0,0,1-.952-1.412,4.412,4.412,0,0,1-.349-1.729,4.412,4.412,0,0,1,.349-1.729,4.414,4.414,0,0,1,.952-1.412,4.468,4.468,0,0,1,.92-.707v-5.7H-2118.7v-9.879a4.432,4.432,0,0,1-.994-.749,4.425,4.425,0,0,1-.952-1.412,4.409,4.409,0,0,1-.349-1.729,4.412,4.412,0,0,1,.349-1.729,4.436,4.436,0,0,1,.952-1.412,4.43,4.43,0,0,1,1.412-.951,4.4,4.4,0,0,1,1.729-.35,4.4,4.4,0,0,1,1.729.35,4.43,4.43,0,0,1,1.412.951,4.428,4.428,0,0,1,.952,1.412,4.4,4.4,0,0,1,.349,1.729,4.4,4.4,0,0,1-.349,1.729,4.424,4.424,0,0,1-.952,1.412,4.514,4.514,0,0,1-.772.618v4.976h5.7v-4.887a4.452,4.452,0,0,1-.92-.707,4.42,4.42,0,0,1-.952-1.412,4.408,4.408,0,0,1-.349-1.729,4.408,4.408,0,0,1,.349-1.729,4.424,4.424,0,0,1,.952-1.412,4.43,4.43,0,0,1,1.412-.951,4.4,4.4,0,0,1,1.729-.35,4.4,4.4,0,0,1,1.729.35,4.43,4.43,0,0,1,1.412.951,4.424,4.424,0,0,1,.952,1.412,4.408,4.408,0,0,1,.349,1.729,4.4,4.4,0,0,1-.349,1.729,4.416,4.416,0,0,1-.952,1.412,4.5,4.5,0,0,1-.846.664v4.93h5.7v-4.887a4.465,4.465,0,0,1-.92-.707,4.417,4.417,0,0,1-.952-1.412,4.409,4.409,0,0,1-.349-1.729,4.412,4.412,0,0,1,.349-1.729,4.425,4.425,0,0,1,.952-1.412,4.427,4.427,0,0,1,1.412-.951,4.4,4.4,0,0,1,1.729-.35,4.4,4.4,0,0,1,1.729.35,4.433,4.433,0,0,1,1.412.951,4.428,4.428,0,0,1,.952,1.412,4.408,4.408,0,0,1,.349,1.729,4.408,4.408,0,0,1-.349,1.729,4.428,4.428,0,0,1-.952,1.412,4.511,4.511,0,0,1-.846.664v15.709a4.489,4.489,0,0,1,.846.663,4.431,4.431,0,0,1,.952,1.412,4.412,4.412,0,0,1,.349,1.729,4.412,4.412,0,0,1-.349,1.729,4.424,4.424,0,0,1-.952,1.412,4.429,4.429,0,0,1-1.412.952A4.417,4.417,0,0,1-2096.053-11527.8Zm0-7.476a3.037,3.037,0,0,0-3.035,3.034,3.038,3.038,0,0,0,3.035,3.035,3.038,3.038,0,0,0,3.035-3.035A3.038,3.038,0,0,0-2096.053-11535.275Zm-10.215,0a3.037,3.037,0,0,0-3.035,3.034,3.038,3.038,0,0,0,3.035,3.035,3.038,3.038,0,0,0,3.035-3.035A3.038,3.038,0,0,0-2106.269-11535.275Zm10.215-1.407a4.446,4.446,0,0,1,.74.062v-14.557a4.543,4.543,0,0,1-.74.061,4.589,4.589,0,0,1-.666-.049v5.9h-8.809v-5.908a4.543,4.543,0,0,1-.74.061,4.578,4.578,0,0,1-.666-.049v5.9h-8.809v-5.922a4.44,4.44,0,0,1-.814.074,4.436,4.436,0,0,1-.592-.039v7.812h10.215v6.712a4.45,4.45,0,0,1,.666-.05,4.441,4.441,0,0,1,.74.062v-6.724h8.809v6.712A4.454,4.454,0,0,1-2096.053-11536.683Zm0-21.911a3.038,3.038,0,0,0-3.035,3.035,3.038,3.038,0,0,0,3.035,3.035,3.038,3.038,0,0,0,3.035-3.035A3.038,3.038,0,0,0-2096.053-11558.594Zm-10.215,0a3.038,3.038,0,0,0-3.035,3.035,3.038,3.038,0,0,0,3.035,3.035,3.038,3.038,0,0,0,3.035-3.035A3.038,3.038,0,0,0-2106.269-11558.594Zm-10.289,0a3.038,3.038,0,0,0-3.035,3.035,3.038,3.038,0,0,0,3.035,3.035,3.038,3.038,0,0,0,3.035-3.035A3.038,3.038,0,0,0-2116.557-11558.594Z" transform="translate(2120.999 11560)"/>
</svg>
