<svg xmlns="http://www.w3.org/2000/svg" width="30.62" height="31.927" viewBox="0 0 30.62 31.927">
  <defs>
    <style>
      .cls-1 {
        fill: #888;
      }
    </style>
  </defs>
  <g id="iconfinder_007-95_1988569" transform="translate(-16.3 -16.5)">
    <path id="Path_26" data-name="Path 26" class="cls-1" d="M43.823,58.1H34.052a.852.852,0,1,0,0,1.7h9.771a.852.852,0,1,0,0-1.7Z" transform="translate(-7.299 -17.967)"/>
    <path id="Path_27" data-name="Path 27" class="cls-1" d="M43.823,50.1H34.052a.852.852,0,1,0,0,1.7h9.771a.852.852,0,1,0,0-1.7Z" transform="translate(-7.299 -14.512)"/>
    <path id="Path_28" data-name="Path 28" class="cls-1" d="M43.823,42.1H34.052a.852.852,0,1,0,0,1.7h9.771a.852.852,0,1,0,0-1.7Z" transform="translate(-7.299 -11.057)"/>
    <path id="Path_29" data-name="Path 29" class="cls-1" d="M46.068,19.625h-6.59A3.718,3.718,0,0,0,35.842,16.5a.852.852,0,1,0,0,1.7,1.9,1.9,0,0,1,1.875,1.42H35.672A3.718,3.718,0,0,0,32.036,16.5a.852.852,0,1,0,0,1.7,1.9,1.9,0,0,1,1.875,1.42H31.866A3.718,3.718,0,0,0,28.23,16.5h0a3.718,3.718,0,0,0-3.636,3.125H17.152a.874.874,0,0,0-.852.852v27.1a.874.874,0,0,0,.852.852H40.33a3.286,3.286,0,0,0,2.216-.852l3.295-2.954a3.389,3.389,0,0,0,1.079-2.5V20.477A.837.837,0,0,0,46.068,19.625Zm-.852,22.553a1.547,1.547,0,0,1-.511,1.193L41.41,46.325a1.5,1.5,0,0,1-1.079.4H40.1V44.109a2.279,2.279,0,0,1,2.272-2.272h2.84ZM18,21.329H29.821a1.966,1.966,0,0,1-1.591.852.852.852,0,0,0,0,1.7A3.614,3.614,0,0,0,31.7,21.329H33.57a1.966,1.966,0,0,1-1.591.852.852.852,0,0,0,0,1.7,3.614,3.614,0,0,0,3.465-2.556h1.932a1.966,1.966,0,0,1-1.591.852.852.852,0,0,0,0,1.7,3.614,3.614,0,0,0,3.465-2.556h5.908V24.51H18ZM38.4,44.109v2.613H18V26.214H45.216V40.133h-2.84A3.988,3.988,0,0,0,38.4,44.109ZM28.23,18.261h0a1.9,1.9,0,0,1,1.875,1.42H26.355A1.9,1.9,0,0,1,28.23,18.261Z"/>
  </g>
</svg>
