<svg xmlns="http://www.w3.org/2000/svg" viewBox="0 0 36 36">
  <defs>
    <style>
      .cls-1 {
        fill: #db2d2e;
        fill-rule: evenodd;
      }
    </style>
  </defs>
  <g id="Group_59" data-name="Group 59" transform="translate(-765 -70)">
    <g id="facebook" transform="translate(765 70)">
      <g id="Facebook-2" data-name="Facebook">
        <path id="Oval-1" class="cls-1" d="M18,36A18,18,0,1,0,0,18,18,18,0,0,0,18,36Zm0-2.16A15.84,15.84,0,1,0,2.16,18,15.84,15.84,0,0,0,18,33.84Z"/>
      </g>
    </g>
    <g id="iconfinder_map-location-pin-map-marker-glyph_763236" transform="translate(777 79)">
      <g id="Artboard-1" transform="translate(1 1)">
        <path id="map-location-pin-map-marker-glyph" class="cls-1" d="M477.5,460s5.5-7.18,5.5-10.318S481.181,444,477.5,444s-5.5,2.544-5.5,5.682S477.5,460,477.5,460Zm0-8.364a2.909,2.909,0,1,0-2.933-2.909,2.921,2.921,0,0,0,2.933,2.909Z" transform="translate(-472 -444)"/>
      </g>
    </g>
  </g>
</svg>
